<svg width="1085" height="574" viewBox="0 0 1085 574" fill="none" xmlns="http://www.w3.org/2000/svg">
<path d="M932 19.33V498.51C932.005 500.931 931.533 503.329 930.61 505.567C929.687 507.806 928.332 509.84 926.622 511.554C924.912 513.267 922.881 514.627 920.644 515.555C918.408 516.482 916.011 516.96 913.59 516.96H178.41C176.691 516.962 174.981 516.72 173.33 516.24C169.48 515.14 166.095 512.813 163.689 509.613C161.283 506.412 159.988 502.514 160 498.51V284.67C160 283.58 160 282.5 160 281.42V77.48C160.43 77.48 160.85 77.48 161.28 77.54C177.76 49.45 199.79 23.64 226.28 0.919983H913.59C916.008 0.919983 918.402 1.39616 920.635 2.32135C922.869 3.24654 924.898 4.60261 926.608 6.31213C928.317 8.02166 929.673 10.0512 930.599 12.2848C931.524 14.5184 932 16.9123 932 19.33V19.33Z" fill="white"/>
<path opacity="0.7" d="M234 505.42H886" stroke="#3F3D56" stroke-miterlimit="10" stroke-linecap="round"/>
<path opacity="0.5" d="M937 573.92C1018.56 573.92 1084.68 569.219 1084.68 563.42C1084.68 557.621 1018.56 552.92 937 552.92C855.439 552.92 789.32 557.621 789.32 563.42C789.32 569.219 855.439 573.92 937 573.92Z" fill="#FFE477"/>
<path d="M949.616 560.158L949.329 559.554C949.241 559.37 940.644 540.959 945.437 522.807C950.231 504.654 966.716 493.194 966.882 493.081L967.427 492.708L967.714 493.312C967.801 493.495 976.399 511.906 971.605 530.058C966.812 548.211 950.326 559.671 950.161 559.784L949.616 560.158ZM966.966 494.455C964.08 496.606 950.727 507.262 946.541 523.113C942.352 538.976 948.642 555.064 950.077 558.41C952.963 556.259 966.315 545.604 970.501 529.753C974.69 513.889 968.4 497.802 966.966 494.455Z" fill="#3F3D56"/>
<path d="M927.45 529.906C932.243 548.056 948.66 559.297 948.66 559.297C948.66 559.297 957.306 541.111 952.513 522.96C947.72 504.809 931.303 493.568 931.303 493.568C931.303 493.568 922.656 511.755 927.45 529.906Z" fill="#FFE477"/>
<path d="M949.875 559.904L949.221 559.867C949.021 559.856 929.137 558.601 915.983 545.484C902.829 532.367 901.07 512.038 901.053 511.834L901 511.165L901.654 511.201C901.854 511.212 921.738 512.468 934.892 525.585C948.046 538.703 949.806 559.031 949.822 559.235L949.875 559.904ZM902.266 512.427C902.698 516.056 905.295 533.19 916.781 544.644C928.267 556.099 945.055 558.297 948.609 558.641C948.177 555.012 945.58 537.879 934.094 526.425C922.6 514.961 905.818 512.77 902.266 512.427Z" fill="#3F3D56"/>
<path d="M964.01 526.005C950.858 539.121 949.251 559.283 949.251 559.283C949.251 559.283 968.969 558.18 982.121 545.064C995.274 531.948 996.88 511.786 996.88 511.786C996.88 511.786 977.162 512.889 964.01 526.005Z" fill="#3F3D56"/>
<path d="M948.977 490.573C953.714 490.573 957.555 486.639 957.555 481.787C957.555 476.934 953.714 473 948.977 473C944.24 473 940.4 476.934 940.4 481.787C940.4 486.639 944.24 490.573 948.977 490.573Z" fill="#FFE477"/>
<path opacity="0.5" d="M147.68 548C229.241 548 295.36 543.299 295.36 537.5C295.36 531.701 229.241 527 147.68 527C66.1186 527 0 531.701 0 537.5C0 543.299 66.1186 548 147.68 548Z" fill="#FFE477"/>
<path d="M226.295 367.983C226.501 366.795 226.471 365.57 226.208 364.396C225.945 363.221 225.455 362.126 224.773 361.186C224.091 360.247 223.233 359.486 222.26 358.957C221.286 358.429 220.221 358.146 219.14 358.128L212.892 340.543L202.417 342.186L211.552 366.881C211.646 368.917 212.403 370.843 213.681 372.296C214.959 373.748 216.669 374.625 218.486 374.761C220.303 374.897 222.102 374.282 223.541 373.033C224.98 371.784 225.96 369.987 226.295 367.983V367.983Z" fill="#9F616A"/>
<path d="M206.998 361.804L203.752 353.143L183.527 310.055L184.627 230.328L184.838 230.296C197.78 228.383 206.536 295.12 206.902 297.962L219.68 346.875L222.722 357.656L206.998 361.804Z" fill="#FFE477"/>
<path d="M175.922 529.922L185.755 529.922L190.433 487.471L175.92 487.472L175.922 529.922Z" fill="#9F616A"/>
<path d="M173.413 526.329L192.779 526.328H192.779C196.052 526.329 199.191 527.784 201.506 530.374C203.82 532.964 205.12 536.477 205.121 540.141V540.589L173.414 540.591L173.413 526.329Z" fill="#2F2E41"/>
<path d="M85.507 513.154L93.5754 519.447L119.099 487.613L107.191 478.326L85.507 513.154Z" fill="#9F616A"/>
<path d="M85.2849 508.601L101.173 520.993L101.174 520.993C103.859 523.088 105.691 526.29 106.267 529.897C106.842 533.503 106.114 537.217 104.243 540.223L104.014 540.591L78 520.302L85.2849 508.601Z" fill="#2F2E41"/>
<path d="M170.517 519.944L170.092 440.31L163.905 390.237L152.37 434.272L152.347 434.308L110.545 502.231L94.2788 493.007L94.3679 492.77C95.362 490.124 118.785 427.974 125.081 427.974C125.631 428.017 126.182 427.91 126.687 427.662C127.191 427.413 127.634 427.032 127.978 426.549C129.826 423.788 128.321 417.927 128.305 417.868C126.503 409.504 131.035 406.655 131.937 406.18L134.365 350.092L134.617 350.111L200.429 355.278L197.668 425.403L191.728 517.28L191.524 517.306L170.517 519.944Z" fill="#2F2E41"/>
<path d="M201.434 367.706L201.149 367.68L130.37 361.295L130.545 335.084L134.009 266.646L134.029 266.599L148.137 232.319L158.138 227.251L172.729 226.392L172.764 226.402L186.08 230.094L199.932 341.386L201.434 367.706Z" fill="#FFE477"/>
<path d="M175.015 217.606C184.046 212.081 187.365 199.408 182.428 189.301C177.491 179.194 166.168 175.479 157.138 181.004C148.107 186.529 144.788 199.202 149.725 209.31C154.661 219.417 165.984 223.132 175.015 217.606Z" fill="#9F616A"/>
<path d="M147.335 204.541V196.415C147.335 196.415 141.479 188.696 147.92 186.752C147.92 186.752 149.677 167.309 164.901 176.382C164.901 176.382 185.981 172.494 183.638 186.104C183.638 186.104 188.908 182.551 187.152 191.624L183.754 206.239C183.754 206.239 185.395 196.585 180.125 195.289L177.197 193.344C177.197 193.344 169 202.418 156.704 191.4C156.704 191.4 151.434 189.992 152.019 195.825C152.605 201.658 147.335 204.541 147.335 204.541Z" fill="#2F2E41"/>
<path d="M164.136 348.133C164.148 346.922 163.922 345.723 163.475 344.621C163.028 343.518 162.371 342.539 161.549 341.751C160.727 340.964 159.761 340.388 158.719 340.064C157.677 339.739 156.584 339.675 155.517 339.874L146.551 323.829L136.51 327.55L149.456 350.009C149.875 351.993 150.929 353.736 152.419 354.908C153.909 356.08 155.731 356.6 157.541 356.369C159.35 356.137 161.021 355.171 162.237 353.653C163.452 352.135 164.128 350.171 164.136 348.133V348.133Z" fill="#9F616A"/>
<path d="M140.978 343.075L124.757 306.216L124.772 306.126C124.837 305.718 131.367 265.141 136.36 250.226C141.386 235.217 148.265 232.203 148.555 232.082L148.7 232.022L154.868 238.643L146.324 302.472L155.534 333.256L140.978 343.075Z" fill="#FFE477"/>
</svg>
