<svg width="635" height="520" viewBox="0 0 635 520" fill="none" xmlns="http://www.w3.org/2000/svg">
<path d="M439.764 514.12C429.1 504.71 422.622 489.846 424.321 475.376C426.019 460.906 436.541 447.604 450.19 444.531C463.838 441.458 479.397 449.964 483.542 463.885C485.824 437.046 488.453 409.082 502.119 386.226C514.493 365.53 535.926 350.722 559.154 348.073C582.383 345.423 606.839 355.429 621.326 374.572C635.812 393.715 639.359 421.545 629.213 443.523C621.739 459.713 607.969 471.762 593.541 481.565C546.92 512.973 491.004 525.746 436.081 517.532L439.764 514.12Z" fill="#F2F2F2"/>
<path d="M598.356 355.984C579.189 372.284 561.606 390.515 545.861 410.412C521.22 441.444 501.279 476.237 486.735 513.578C485.671 516.302 489.907 517.488 490.96 514.794C514.757 454.107 552.746 400.618 601.454 359.219C603.641 357.359 600.525 354.14 598.356 355.984Z" fill="white"/>
<path d="M399.941 518.862H50.4637V144.462C50.4637 64.805 112.529 -7.62939e-06 188.818 -7.62939e-06H261.586C337.875 -7.62939e-06 399.941 64.805 399.941 144.462V518.862Z" fill="#F2F2F2"/>
<path d="M327.173 518.862H50.4638V144.462C50.3875 113.939 59.6441 84.1878 76.8859 59.5398C77.5215 58.6353 78.1555 57.7424 78.8093 56.8594C87.1491 45.4385 97.0737 35.3803 108.256 27.0167C108.887 26.5369 109.521 26.0653 110.165 25.5938C119.521 18.833 129.643 13.3062 140.299 9.13916C140.931 8.88874 141.576 8.63782 142.22 8.39716C151.857 4.80619 161.847 2.34639 172.005 1.06319C172.635 0.973362 173.282 0.903071 173.928 0.83278C183.827 -0.272395 193.811 -0.272395 203.711 0.83278C204.355 0.903071 205.002 0.973353 205.639 1.06415C215.795 2.34744 225.782 4.80693 235.417 8.3972C236.061 8.63787 236.706 8.88877 237.34 9.13968C247.864 13.2541 257.867 18.6985 267.124 25.3512C267.767 25.8125 268.411 26.284 269.045 26.7556C275.312 31.4271 281.2 36.6314 286.646 42.3154C291.014 46.8746 295.085 51.7345 298.83 56.8623C299.481 57.7425 300.115 58.6353 300.75 59.5384C317.992 84.1867 327.249 113.938 327.173 144.462V518.862Z" fill="#CCCCCC"/>
<path d="M304.672 351.406C313.133 351.406 319.992 344.245 319.992 335.411C319.992 326.576 313.133 319.415 304.672 319.415C296.212 319.415 289.353 326.576 289.353 335.411C289.353 344.245 296.212 351.406 304.672 351.406Z" fill="#FFE477"/>
<path d="M371.311 507.648H359.573L353.988 460.372L371.313 460.373L371.311 507.648Z" fill="#FFB8B8"/>
<path d="M351.188 504.145H373.826V519.028H336.934C336.934 517.074 337.303 515.139 338.019 513.333C338.736 511.527 339.785 509.887 341.109 508.505C342.433 507.123 344.004 506.026 345.733 505.278C347.463 504.53 349.316 504.145 351.188 504.145V504.145Z" fill="#2F2E41"/>
<path d="M429.717 507.648H417.979L412.394 460.372L429.719 460.373L429.717 507.648Z" fill="#FFB8B8"/>
<path d="M409.594 504.145H432.232V519.028H395.34C395.34 517.074 395.709 515.139 396.425 513.333C397.141 511.527 398.191 509.887 399.515 508.505C400.838 507.123 402.41 506.026 404.139 505.278C405.868 504.53 407.722 504.145 409.594 504.145V504.145Z" fill="#2F2E41"/>
<path d="M312.426 338.579C311.581 337.28 311.02 335.804 310.781 334.253C310.542 332.703 310.632 331.117 311.044 329.607C311.455 328.097 312.179 326.7 313.164 325.513C314.149 324.327 315.371 323.38 316.744 322.741L356.648 207.905L376.283 219.093L330.722 328.834C331.598 331.314 331.573 334.044 330.651 336.506C329.729 338.968 327.974 340.991 325.719 342.192C323.464 343.393 320.865 343.689 318.415 343.023C315.965 342.357 313.834 340.776 312.426 338.579V338.579Z" fill="#FFB8B8"/>
<path d="M423.721 360.158C422.416 359.377 421.292 358.307 420.426 357.023C419.561 355.739 418.975 354.272 418.711 352.727C418.447 351.181 418.511 349.594 418.898 348.076C419.285 346.559 419.986 345.149 420.951 343.945L408.589 222.468L430.935 223.534L436.072 343.023C437.901 344.85 439.025 347.315 439.23 349.95C439.435 352.584 438.708 355.206 437.185 357.318C435.663 359.43 433.452 360.886 430.97 361.409C428.488 361.933 425.909 361.487 423.721 360.158V360.158Z" fill="#FFB8B8"/>
<path d="M388.074 186.634C401.062 186.634 411.59 175.64 411.59 162.079C411.59 148.518 401.062 137.525 388.074 137.525C375.086 137.525 364.557 148.518 364.557 162.079C364.557 175.64 375.086 186.634 388.074 186.634Z" fill="#FFB8B8"/>
<path d="M423.571 332.53H352.673L352.758 331.954C352.886 331.093 365.394 245.538 356.169 217.549C355.243 214.798 355.324 211.787 356.397 209.095C357.47 206.404 359.459 204.222 361.98 202.969H361.98C375.166 196.485 400.478 188.502 421.841 207.877C424.985 210.775 427.44 214.397 429.012 218.456C430.584 222.516 431.23 226.902 430.898 231.267L423.571 332.53Z" fill="#FFE477"/>
<path d="M366.29 258.182L334.371 251.42L349.333 214.4C350.228 210.815 352.449 207.746 355.508 205.868C358.567 203.99 362.215 203.455 365.651 204.382C369.087 205.308 372.031 207.619 373.838 210.809C375.644 213.999 376.164 217.806 375.286 221.396L366.29 258.182Z" fill="#FFE477"/>
<path d="M407.17 270.736L405.251 224.807C403.796 216.173 408.53 208.011 415.81 206.677C423.092 205.348 430.202 211.336 431.664 220.033L438.876 262.949L407.17 270.736Z" fill="#FFE477"/>
<path d="M421.212 327.031C432.62 372.396 433.864 430.073 430.787 492.987L415.467 490.988L387.701 371.02L372.381 492.987L355.147 491.988C349.998 425.975 344.985 369.305 353.232 332.03L421.212 327.031Z" fill="#2F2E41"/>
<path d="M403.569 181.056C399.182 185.935 391.034 183.316 390.463 176.65C390.418 176.132 390.421 175.611 390.472 175.095C390.767 172.142 392.401 169.461 392.01 166.343C391.921 165.567 391.644 164.828 391.206 164.195C387.71 159.307 379.503 166.381 376.204 161.956C374.181 159.243 376.559 154.971 375.006 151.938C372.957 147.936 366.888 149.91 363.082 147.718C358.847 145.279 359.101 138.496 361.888 134.369C365.288 129.337 371.248 126.652 377.134 126.265C383.02 125.878 388.866 127.539 394.361 129.775C400.605 132.316 406.797 135.827 410.639 141.56C415.312 148.531 415.761 157.903 413.424 166.055C412.003 171.014 407.151 177.071 403.569 181.056Z" fill="#2F2E41"/>
<path d="M606.26 519.862H1.16956C0.911234 519.86 0.663764 519.702 0.481365 519.421C0.298966 519.14 0.196533 518.759 0.196533 518.362C0.196533 517.965 0.298966 517.584 0.481365 517.303C0.663764 517.022 0.911234 516.863 1.16956 516.862H606.26C606.519 516.863 606.766 517.022 606.949 517.303C607.131 517.584 607.233 517.965 607.233 518.362C607.233 518.759 607.131 519.14 606.949 519.421C606.766 519.702 606.519 519.86 606.26 519.862V519.862Z" fill="#3F3D56"/>
<path d="M251.054 410.391H126.583C124.943 410.4 123.368 409.73 122.201 408.527C121.034 407.325 120.372 405.689 120.359 403.977V113.885C120.372 112.173 121.034 110.537 122.201 109.335C123.368 108.132 124.943 107.462 126.583 107.471H251.054C252.693 107.462 254.269 108.132 255.436 109.335C256.603 110.537 257.265 112.173 257.278 113.885V403.977C257.265 405.689 256.603 407.325 255.436 408.527C254.269 409.73 252.693 410.4 251.054 410.391V410.391Z" fill="white"/>
<path d="M257.278 201.336H120.359V203.335H257.278V201.336Z" fill="#CCCCCC"/>
<path d="M257.756 315.416H120.838V317.415H257.756V315.416Z" fill="#CCCCCC"/>
<path d="M165.36 107.471H163.445V411.39H165.36V107.471Z" fill="#CCCCCC"/>
<path d="M213.234 107.471H211.319V411.39H213.234V107.471Z" fill="#CCCCCC"/>
</svg>
