<svg width="471" height="483" viewBox="0 0 471 483" fill="none" xmlns="http://www.w3.org/2000/svg">
<g clip-path="url(#clip0)">
<path d="M104.5 182.129L24.2795 134.633C8.77881 166.756 0.000919922 202.983 0 241.498C0 279.481 8.87265 315.77 24.6116 348.177L104.495 300.882C96.6157 282.688 92.1513 262.621 92.1523 241.498C92.1532 220.376 96.6203 200.316 104.5 182.129Z" fill="#F5F5F5"/>
<path d="M389.978 59.2128C348.591 22.2954 294.508 -0.0405703 235.337 -5.87743e-06C154.383 0.0556523 82.1269 42.437 39.6735 107.377L119.96 154.913C146.068 118.392 188.071 94.4991 235.503 94.5001C270.08 94.501 301.776 107.176 326.533 128.179C332.593 133.319 341.452 132.849 347.013 127.146L390.738 82.3072C397.043 75.8414 396.705 65.2125 389.978 59.2128Z" fill="#F5F5F5"/>
<path d="M469.387 213.558C468.47 205.563 461.916 199.511 454.068 199.511L261.099 199.501C252.617 199.501 245.74 206.552 245.74 215.251V278.199C245.74 286.896 252.616 293.949 261.099 293.949H369.234C359.274 320.532 341.974 343.384 319.949 359.996L365.879 441.576C412.11 409.449 447.261 360.875 462.744 303.533C471.161 272.356 472.676 242.208 469.387 213.558Z" fill="#F5F5F5"/>
<path d="M293.391 375.816C275.678 383.909 256.124 388.499 235.503 388.501C188.017 388.502 146.039 364.608 119.949 328.101L40.0046 375.433C82.1021 439.735 153.549 483 235.501 483C272.548 483 307.81 473.713 339.35 457.45L293.391 375.816Z" fill="#F5F5F5"/>
</g>
<defs>
<clipPath id="clip0">
<rect width="471" height="483" fill="white"/>
</clipPath>
</defs>
</svg>
