<svg width="1100" height="674" viewBox="0 0 1100 674" fill="none" xmlns="http://www.w3.org/2000/svg">
<g clip-path="url(#clip0)">
<path d="M516.37 673.017L514.983 671.576C515.258 671.312 542.538 644.599 552.935 594.679C562.536 548.582 559.293 472.688 489.319 372.911C460.083 331.221 440.145 291.833 430.059 255.84C421.818 226.43 420.074 199.09 424.874 174.58C434.362 126.121 466.614 104.846 466.939 104.637L468.022 106.318C467.705 106.523 436.126 127.398 426.824 175.026C416.151 229.67 437.729 295.862 490.957 371.762C522.039 416.083 542.73 459.483 552.454 500.756C560.244 533.82 561.056 565.6 554.866 595.215C544.316 645.692 516.648 672.75 516.37 673.017Z" fill="#F2F2F2"/>
<path d="M449.228 216.249C491.983 216.249 526.643 181.59 526.643 138.835C526.643 96.0803 491.983 61.4208 449.228 61.4208C406.474 61.4208 371.814 96.0803 371.814 138.835C371.814 181.59 406.474 216.249 449.228 216.249Z" fill="#F2F2F2"/>
<path d="M467.48 210.956C446.619 210.956 426.226 204.769 408.88 193.179C391.534 181.589 378.015 165.116 370.032 145.843C362.048 126.569 359.959 105.361 364.029 84.9003C368.099 64.4396 378.145 45.6453 392.896 30.8939C407.647 16.1425 426.442 6.09669 446.902 2.02676C467.363 -2.04317 488.571 0.0455937 507.845 8.02891C527.118 16.0122 543.592 29.5315 555.182 46.8772C566.772 64.223 572.958 84.616 572.958 105.478C572.926 133.442 561.803 160.253 542.029 180.027C522.255 199.801 495.445 210.924 467.48 210.956V210.956ZM467.48 1.99999C447.014 1.99994 427.008 8.06876 409.991 19.439C392.974 30.8093 379.711 46.9703 371.879 65.8784C364.047 84.7865 361.998 105.592 365.991 125.665C369.983 145.738 379.839 164.176 394.31 178.648C408.782 193.119 427.22 202.975 447.293 206.967C467.365 210.96 488.171 208.911 507.08 201.079C525.988 193.247 542.149 179.984 553.519 162.967C564.889 145.95 570.958 125.944 570.958 105.478C570.927 78.0431 560.015 51.7413 540.616 32.3422C521.217 12.9431 494.915 2.03108 467.48 1.99999Z" fill="#F2F2F2"/>
<path d="M526.643 378.63C562.098 378.63 590.84 349.888 590.84 314.433C590.84 278.978 562.098 250.236 526.643 250.236C491.187 250.236 462.445 278.978 462.445 314.433C462.445 349.888 491.187 378.63 526.643 378.63Z" fill="#F2F2F2"/>
<path d="M493.915 601.432C529.37 601.432 558.112 572.69 558.112 537.235C558.112 501.78 529.37 473.038 493.915 473.038C458.459 473.038 429.717 501.78 429.717 537.235C429.717 572.69 458.459 601.432 493.915 601.432Z" fill="#F2F2F2"/>
<path d="M763.421 114H528.421V267H763.421V114Z" fill="#FFE477"/>
<path d="M1076.98 673H859.339C859.339 673 854.927 608.296 881.03 607.561C907.132 606.825 904.191 636.236 936.911 595.796C969.63 555.356 1009.34 557.562 1014.48 581.458C1019.63 605.355 1004.56 624.472 1032.13 618.59C1059.7 612.707 1099.41 628.148 1076.98 673Z" fill="#F2F2F2"/>
<path d="M964.486 673.015L963.751 672.985C965.464 630.385 974.386 603.013 981.569 587.553C989.368 570.767 996.884 563.971 996.959 563.905L997.447 564.454C997.373 564.52 989.946 571.248 982.209 587.921C975.066 603.315 966.193 630.574 964.486 673.015Z" fill="white"/>
<path d="M1043.26 673.103L1042.55 672.897C1048.02 654.842 1057.89 638.427 1071.27 625.122L1071.76 625.666C1058.48 638.879 1048.69 655.177 1043.26 673.103V673.103Z" fill="white"/>
<path d="M893.619 673.051L892.89 672.949C895.263 656.978 892.752 640.662 885.687 626.142C882.789 620.052 878.953 614.455 874.32 609.555L874.828 609.024C879.523 613.984 883.409 619.651 886.346 625.817C893.477 640.468 896.012 656.933 893.619 673.051V673.051Z" fill="white"/>
<path d="M85.5379 672.79L85.0359 671.759C84.8831 671.445 69.8479 640.016 78.2307 609.027C86.614 578.038 115.444 558.474 115.734 558.281L116.686 557.643L117.188 558.675C117.341 558.988 132.376 590.418 123.993 621.406C115.61 652.395 86.7806 671.959 86.4906 672.152L85.5379 672.79ZM115.88 560.627C110.832 564.299 87.4817 582.489 80.1614 609.549C72.8357 636.63 83.8357 664.094 86.3445 669.807C91.3919 666.135 114.742 647.944 122.062 620.885C129.388 593.804 118.388 566.34 115.88 560.627Z" fill="#3F3D56"/>
<path d="M46.7733 621.145C55.1555 652.131 83.8663 671.321 83.8663 671.321C83.8663 671.321 98.987 640.274 90.6048 609.288C82.2226 578.303 53.5118 559.112 53.5118 559.112C53.5118 559.112 38.3911 590.16 46.7733 621.145Z" fill="#FFE477"/>
<path d="M85.9905 672.356L84.8459 672.294C84.4973 672.275 49.7234 670.132 26.7195 647.739C3.71655 625.347 0.638916 590.642 0.610596 590.294L0.517334 589.152L1.66187 589.215C2.01051 589.233 36.7844 591.377 59.7879 613.769C82.7913 636.163 85.8689 670.866 85.8972 671.215L85.9905 672.356ZM2.73219 591.307C3.48658 597.503 8.02808 626.753 28.115 646.305C48.2019 665.86 77.5618 669.613 83.7756 670.201C83.0212 664.005 78.4797 634.757 58.3923 615.203C38.2908 595.634 8.94312 591.892 2.73219 591.307Z" fill="#3F3D56"/>
<path d="M110.711 614.486C87.7099 636.877 84.9005 671.296 84.9005 671.296C84.9005 671.296 119.383 669.413 142.384 647.023C165.384 624.632 168.194 590.213 168.194 590.213C168.194 590.213 133.712 592.096 110.711 614.486Z" fill="#3F3D56"/>
<path d="M297.711 420.486C274.71 442.877 271.901 477.296 271.901 477.296C271.901 477.296 306.383 475.413 329.384 453.023C352.385 430.632 355.194 396.213 355.194 396.213C355.194 396.213 320.712 398.096 297.711 420.486Z" fill="#3F3D56"/>
<path d="M84.4211 554C92.7054 554 99.4211 547.284 99.4211 539C99.4211 530.716 92.7054 524 84.4211 524C76.1369 524 69.4211 530.716 69.4211 539C69.4211 547.284 76.1369 554 84.4211 554Z" fill="#FFE477"/>
<path d="M266.403 672.017L265.016 670.575C265.234 670.366 286.872 649.171 295.113 609.567C302.724 572.99 300.139 512.766 244.602 433.574C202.008 372.838 184.771 319.774 193.371 275.857C200.926 237.275 226.621 220.326 226.88 220.16L227.963 221.84C227.712 222.003 202.691 238.552 195.322 276.304C186.86 319.655 203.991 372.183 246.24 432.426C270.947 467.657 287.396 502.159 295.127 534.973C301.322 561.268 301.968 586.546 297.044 610.102C288.65 650.265 266.624 671.804 266.403 672.017Z" fill="#3F3D56"/>
<path d="M256.421 270C355.832 270 436.421 256.174 436.421 239.12C436.421 222.065 355.832 208.239 256.421 208.239C157.01 208.239 76.4211 222.065 76.4211 239.12C76.4211 256.174 157.01 270 256.421 270Z" fill="#FFE477"/>
<path d="M222.921 261C98.155 261 0.421143 243.869 0.421143 222C0.421143 200.131 98.155 183 222.921 183C347.687 183 445.421 200.131 445.421 222C445.421 243.869 347.687 261 222.921 261ZM222.921 185C103.398 185 2.42114 201.944 2.42114 222C2.42114 242.056 103.398 259 222.921 259C342.445 259 443.421 242.056 443.421 222C443.421 201.944 342.445 185 222.921 185Z" fill="#3F3D56"/>
<path d="M273.482 70.4441C273.482 70.4441 246.808 62.9304 238.919 99.3719C231.029 135.813 237.04 154.222 237.04 154.222L296.586 147.272C296.586 147.272 313.492 81.5268 273.482 70.4441Z" fill="#2F2E41"/>
<path d="M233.575 228.28C233.575 228.28 194.449 232.177 201.418 247.973C208.387 263.769 208.387 265.162 208.387 265.162L242.766 326.488L253.916 314.873C253.916 314.873 241.372 287.462 241.372 278.635C241.372 269.808 228.364 254.477 228.364 254.477L251.129 252.618L233.575 228.28Z" fill="#A0616A"/>
<path d="M340.794 247.043L353.802 275.383C353.802 275.383 363.558 285.139 374.244 324.165C384.929 363.19 387.252 361.796 387.252 361.796L370.992 365.048C370.992 365.048 352.873 322.771 346.833 319.519C340.794 316.267 333.36 286.533 333.36 286.533L311.989 259.587L318.494 245.185L340.794 247.043Z" fill="#A0616A"/>
<path d="M324.998 214.522L344.975 251.689C344.975 251.689 319.887 240.075 316.171 265.627L293.406 247.973C293.406 247.973 261.814 258.193 242.766 254.477C242.766 254.477 248.341 236.823 228.364 228.925L273.429 223.35L271.57 213.593L276.216 204.301L324.998 214.522Z" fill="#2F2E41"/>
<path d="M245.553 318.125C245.553 318.125 233.01 316.267 236.262 327.417L242.766 349.717C242.766 349.717 234.403 372.482 247.412 367.371C260.42 362.261 268.783 330.669 268.783 330.669C268.783 330.669 274.358 306.51 268.783 306.51C263.208 306.51 245.554 302.794 247.412 306.51C249.27 310.227 245.553 318.125 245.553 318.125Z" fill="#2F2E41"/>
<path d="M385.859 355.292C385.859 355.292 369.598 351.111 365.881 357.615C362.165 364.119 363.094 385.49 363.094 385.955C363.094 386.419 368.669 391.065 370.527 391.065C372.386 391.065 384 411.972 399.796 404.538C415.592 397.105 385.859 355.292 385.859 355.292Z" fill="#2F2E41"/>
<path d="M268.783 127.18C278.79 127.18 286.902 119.068 286.902 109.061C286.902 99.0544 278.79 90.9423 268.783 90.9423C258.776 90.9423 250.664 99.0544 250.664 109.061C250.664 119.068 258.776 127.18 268.783 127.18Z" fill="#A0616A"/>
<path d="M283.65 112.778C283.65 112.778 287.366 132.291 290.618 135.078C293.871 137.866 265.995 142.047 265.995 142.047C265.995 142.047 270.177 128.574 265.066 121.605C259.956 114.636 283.65 112.778 283.65 112.778Z" fill="#A0616A"/>
<path d="M332.431 223.349C329.267 223.349 321.211 222.039 312.18 220.353C304.366 218.894 295.812 217.161 289.067 215.758C281.842 214.253 276.681 213.129 276.681 213.129C276.681 213.129 274.822 224.743 268.783 223.349C263.579 222.151 248.03 167.836 243.825 152.825C243.518 151.729 243.577 150.563 243.994 149.503C244.411 148.444 245.162 147.55 246.134 146.958L267.491 133.917L272.964 136.007C272.964 136.007 282.209 128.862 287.575 128.718C292.941 128.574 302.233 127.18 302.233 127.18C302.233 127.18 312.919 128.109 314.777 136.007C316.635 143.905 317.564 193.151 324.533 201.978C331.502 210.806 341.258 223.349 332.431 223.349Z" fill="#D0CDE1"/>
<path d="M267.389 249.366C267.389 249.366 267.389 267.485 279.468 264.698C291.548 261.91 280.397 245.185 280.397 245.185L267.389 249.366Z" fill="#A0616A"/>
<path d="M300.839 251.225C300.839 251.225 296.658 272.596 287.831 269.344C279.004 266.091 287.831 247.043 287.831 247.043L300.839 251.225Z" fill="#A0616A"/>
<path opacity="0.15" d="M320.352 200.585C320.352 200.585 315.804 211.437 312.18 220.353C304.366 218.894 295.813 217.161 289.067 215.758C289.551 214.475 290.231 213.275 291.083 212.199C294.335 208.483 292.477 207.554 292.477 207.554C289.689 201.979 292.012 194.545 292.012 194.545C286.437 179.678 294.8 161.095 294.8 161.095L320.352 200.585Z" fill="black"/>
<path d="M296.193 161.095C296.193 161.095 287.831 179.678 293.406 194.545C293.406 194.545 291.083 201.978 293.871 207.554C293.871 207.554 295.729 208.483 292.477 212.199C289.225 215.916 286.437 228.925 288.76 231.712C291.083 234.5 285.508 239.61 286.902 242.398C288.295 245.185 284.579 248.902 284.579 248.902C284.579 248.902 298.516 251.689 300.839 255.871C300.839 255.871 303.627 252.618 302.233 248.902C300.839 245.185 301.769 243.791 303.162 241.468C304.556 239.145 308.737 234.035 309.202 231.712C309.666 229.389 321.746 200.585 321.746 200.585L316.081 148.093L296.193 161.095Z" fill="#D0CDE1"/>
<path d="M247.876 148.086L247.008 148.244C245.798 148.464 244.704 149.103 243.919 150.05C243.135 150.997 242.709 152.191 242.718 153.421C242.751 158.085 243.014 166.364 244.16 177.82C246.018 196.403 252.522 224.279 253.916 227.066C256.129 231.999 258.611 236.807 261.349 241.468C265.531 248.437 266.46 246.114 265.531 249.366C265.248 250.262 265.229 251.22 265.476 252.127C265.723 253.033 266.226 253.849 266.924 254.477C266.924 254.477 275.287 245.185 283.65 250.296C284.247 248.982 284.564 247.558 284.579 246.114C284.579 243.791 285.972 241.468 283.65 240.075C281.327 238.681 285.043 232.641 281.327 229.389C277.61 226.137 277.145 226.602 277.61 223.35C277.827 221.138 277.508 218.907 276.681 216.845L247.876 148.086Z" fill="#D0CDE1"/>
<path d="M275.557 85.7864C275.557 85.7864 268.043 105.698 249.634 113.963L246.629 96.3055L275.557 85.7864Z" fill="#2F2E41"/>
<path d="M286.437 106.971C287.848 106.971 288.992 104.787 288.992 102.092C288.992 99.3983 287.848 97.2142 286.437 97.2142C285.026 97.2142 283.882 99.3983 283.882 102.092C283.882 104.787 285.026 106.971 286.437 106.971Z" fill="#A0616A"/>
<path d="M811.813 358.86C829.737 358.86 844.268 344.33 844.268 326.406C844.268 308.482 829.737 293.952 811.813 293.952C793.889 293.952 779.359 308.482 779.359 326.406C779.359 344.33 793.889 358.86 811.813 358.86Z" fill="#2F2E41"/>
<path d="M807.478 294.561C813.432 294.561 818.259 289.734 818.259 283.78C818.259 277.826 813.432 273 807.478 273C801.524 273 796.698 277.826 796.698 283.78C796.698 289.734 801.524 294.561 807.478 294.561Z" fill="#2F2E41"/>
<path d="M795.347 290.457C793.686 288.365 792.86 285.731 793.03 283.065C793.201 280.398 794.355 277.891 796.269 276.027C795.967 276.221 795.673 276.431 795.386 276.658C794.278 277.539 793.353 278.629 792.666 279.867C791.979 281.105 791.542 282.466 791.381 283.872C791.22 285.279 791.337 286.703 791.727 288.064C792.116 289.425 792.77 290.696 793.65 291.805C794.531 292.913 795.621 293.838 796.859 294.525C798.097 295.212 799.458 295.649 800.864 295.81C802.271 295.971 803.695 295.853 805.056 295.464C806.417 295.075 807.688 294.421 808.797 293.541C809.083 293.313 809.355 293.074 809.611 292.824C807.363 294.267 804.659 294.823 802.024 294.386C799.388 293.949 797.009 292.548 795.347 290.457V290.457Z" fill="#2F2E41"/>
<path d="M758.655 443.77L739.871 459.665C739.871 459.665 711.695 468.334 725.421 477.726C739.148 487.118 747.096 466.167 747.096 466.167L770.214 451.717L758.655 443.77Z" fill="#FFB9B9"/>
<path d="M799.113 374.413L796.946 372.968C796.946 372.968 788.276 372.968 786.831 381.638C785.386 390.308 781.052 408.369 781.052 408.369C781.052 408.369 766.602 417.039 768.047 432.933L752.875 445.938C752.875 445.938 770.937 451.717 767.325 456.775L794.056 432.211L794.778 385.25L799.113 374.413Z" fill="#2F2E41"/>
<path d="M807.783 357.797C818.157 357.797 826.567 349.387 826.567 339.012C826.567 328.638 818.157 320.228 807.783 320.228C797.409 320.228 788.999 328.638 788.999 339.012C788.999 349.387 797.409 357.797 807.783 357.797Z" fill="#FFB9B9"/>
<path d="M802.003 352.017C802.003 352.017 813.563 365.021 806.338 372.246C799.113 379.471 796.946 414.872 796.946 414.872L828.735 366.466C828.735 366.466 820.065 349.127 820.787 343.347L802.003 352.017Z" fill="#FFB9B9"/>
<path d="M799.836 402.59C799.836 402.59 817.175 364.506 826.567 361.874L851.131 367.911C851.131 367.911 831.624 435.101 833.792 441.603C835.959 448.105 848.241 457.497 843.906 514.572C843.906 514.572 899.536 616.44 885.81 633.78C872.083 651.119 820.787 664.123 820.065 659.066C819.342 654.009 796.223 575.982 799.836 552.141C799.836 552.141 799.836 655.454 795.501 657.621C791.166 659.789 721.809 675.683 723.977 663.401C726.144 651.119 760.822 516.017 760.822 516.017L787.554 432.211L788.276 419.929C788.276 419.929 776.717 411.982 785.386 393.92C794.056 375.858 796.946 372.968 796.946 372.968L807.354 371.014C807.354 371.014 797.668 397.532 799.836 402.59Z" fill="#2F2E41"/>
<path d="M838.849 456.775L830.179 475.559C830.179 475.559 807.783 499.4 823.677 500.123C839.572 500.845 841.016 478.449 841.016 478.449L852.576 456.775H838.849Z" fill="#FFB9B9"/>
<path d="M841.739 368.634H851.131C851.131 368.634 854.021 364.299 856.911 382.36C859.801 400.422 858.356 427.876 858.356 427.876L854.021 463.999C854.021 463.999 838.849 458.22 835.237 459.665C831.624 461.11 835.237 458.942 835.237 458.942L841.739 434.378L833.792 398.977L841.739 368.634Z" fill="#2F2E41"/>
<path d="M805.882 311.315C793.612 314.648 785.242 323.153 787.187 330.31C788.057 333.513 790.851 335.896 794.766 337.261L798.201 333L798.357 338.171C798.9 338.263 799.452 338.346 800.02 338.406L804.384 329.216L806.872 338.373C808.916 338.155 810.94 337.774 812.924 337.233C825.193 333.9 833.563 325.395 831.619 318.238C829.674 311.081 818.151 307.981 805.882 311.315Z" fill="#2F2E41"/>
<path d="M826.928 338.651C828.125 338.651 829.096 337.034 829.096 335.039C829.096 333.044 828.125 331.426 826.928 331.426C825.731 331.426 824.761 333.044 824.761 335.039C824.761 337.034 825.731 338.651 826.928 338.651Z" fill="#FFB9B9"/>
<path d="M753.421 673C762.81 673 770.421 669.642 770.421 665.5C770.421 661.358 762.81 658 753.421 658C744.032 658 736.421 661.358 736.421 665.5C736.421 669.642 744.032 673 753.421 673Z" fill="#2F2E41"/>
<path d="M845.697 669.428C857.409 664.812 865.262 656.904 863.237 651.766C861.212 646.628 850.075 646.205 838.363 650.822C826.651 655.438 818.798 663.346 820.824 668.484C822.849 673.622 833.985 674.045 845.697 669.428Z" fill="#2F2E41"/>
<path d="M730.895 468.267C730.597 468.194 700.94 460.645 689.655 430.662C676.791 396.488 691.914 348.296 734.603 287.426C786.742 213.079 789.574 188.098 782.768 180.233C774.158 170.285 747.143 183.755 746.872 183.892L745.97 182.107C747.137 181.518 774.652 167.801 784.279 178.923C794.858 191.144 778.695 228.036 736.24 288.574C713.108 321.559 697.988 351.166 691.301 376.574C685.879 397.172 685.951 415.122 691.515 429.928C702.411 458.924 731.081 466.254 731.369 466.324L730.895 468.267Z" fill="#3F3D56"/>
<path d="M747.421 243H496.421V78.9999H747.421V243ZM498.421 241H745.421V80.9999H498.421V241Z" fill="#3F3D56"/>
<path d="M600.954 182.752C606.771 182.752 611.487 178.036 611.487 172.219C611.487 166.402 606.771 161.686 600.954 161.686C595.137 161.686 590.421 166.402 590.421 172.219C590.421 178.036 595.137 182.752 600.954 182.752Z" fill="#3F3D56"/>
<path d="M690.888 182.752C696.705 182.752 701.421 178.036 701.421 172.219C701.421 166.402 696.705 161.686 690.888 161.686C685.071 161.686 680.355 166.402 680.355 172.219C680.355 178.036 685.071 182.752 690.888 182.752Z" fill="#3F3D56"/>
<path d="M690.888 215.161C690.888 218.293 670.574 227.314 645.516 227.314C620.458 227.314 600.144 218.293 600.144 215.161C600.144 212.028 620.458 215.971 645.516 215.971C670.574 215.971 690.888 212.028 690.888 215.161Z" fill="#3F3D56"/>
<path d="M1100 671.551H0V673.551H1100V671.551Z" fill="#3F3D56"/>
</g>
<defs>
<clipPath id="clip0">
<rect width="1100" height="673.551" fill="white"/>
</clipPath>
</defs>
</svg>
